<mxfile host="app.diagrams.net" modified="2021-01-02T12:16:15.906Z" agent="5.0 (Windows NT 10.0; Win64; x64) AppleWebKit/537.36 (KHTML, like Gecko) Chrome/87.0.4280.88 Safari/537.36 Edg/87.0.664.66" etag="RC8wIrNyaKT8bQyo5F9m" version="14.1.7" type="github">
  <diagram id="AA2cqsDlyc3mO0OZQ8gX" name="Page-1">
    <mxGraphModel dx="1278" dy="532" grid="1" gridSize="10" guides="1" tooltips="1" connect="1" arrows="1" fold="1" page="1" pageScale="1" pageWidth="827" pageHeight="1169" math="0" shadow="0">
      <root>
        <mxCell id="0" />
        <mxCell id="1" parent="0" />
        <mxCell id="SJpITs7ze4VyYi8E-i2q-14" style="edgeStyle=orthogonalEdgeStyle;rounded=0;orthogonalLoop=1;jettySize=auto;html=1;exitX=1;exitY=0.5;exitDx=0;exitDy=0;entryX=1;entryY=0.5;entryDx=0;entryDy=0;" edge="1" parent="1" target="SJpITs7ze4VyYi8E-i2q-1">
          <mxGeometry relative="1" as="geometry">
            <mxPoint x="690" y="170" as="sourcePoint" />
            <Array as="points">
              <mxPoint x="690" y="290" />
            </Array>
          </mxGeometry>
        </mxCell>
        <mxCell id="SJpITs7ze4VyYi8E-i2q-15" style="edgeStyle=orthogonalEdgeStyle;rounded=0;orthogonalLoop=1;jettySize=auto;html=1;exitX=0;exitY=0.5;exitDx=0;exitDy=0;" edge="1" parent="1" source="SJpITs7ze4VyYi8E-i2q-1" target="SJpITs7ze4VyYi8E-i2q-16">
          <mxGeometry relative="1" as="geometry">
            <mxPoint x="130" y="170" as="targetPoint" />
          </mxGeometry>
        </mxCell>
        <mxCell id="SJpITs7ze4VyYi8E-i2q-1" value="温度变送器" style="rounded=0;whiteSpace=wrap;html=1;" vertex="1" parent="1">
          <mxGeometry x="365" y="270" width="65" height="40" as="geometry" />
        </mxCell>
        <mxCell id="SJpITs7ze4VyYi8E-i2q-2" value="水" style="rounded=0;whiteSpace=wrap;html=1;" vertex="1" parent="1">
          <mxGeometry x="610" y="150" width="50" height="40" as="geometry" />
        </mxCell>
        <mxCell id="SJpITs7ze4VyYi8E-i2q-12" value="" style="edgeStyle=orthogonalEdgeStyle;rounded=0;orthogonalLoop=1;jettySize=auto;html=1;" edge="1" parent="1" source="SJpITs7ze4VyYi8E-i2q-3" target="SJpITs7ze4VyYi8E-i2q-2">
          <mxGeometry relative="1" as="geometry" />
        </mxCell>
        <mxCell id="SJpITs7ze4VyYi8E-i2q-3" value="锅炉壁" style="rounded=0;whiteSpace=wrap;html=1;" vertex="1" parent="1">
          <mxGeometry x="490" y="150" width="50" height="40" as="geometry" />
        </mxCell>
        <mxCell id="SJpITs7ze4VyYi8E-i2q-11" value="" style="edgeStyle=orthogonalEdgeStyle;rounded=0;orthogonalLoop=1;jettySize=auto;html=1;" edge="1" parent="1" source="SJpITs7ze4VyYi8E-i2q-4" target="SJpITs7ze4VyYi8E-i2q-3">
          <mxGeometry relative="1" as="geometry" />
        </mxCell>
        <mxCell id="SJpITs7ze4VyYi8E-i2q-4" value="炉膛" style="rounded=0;whiteSpace=wrap;html=1;" vertex="1" parent="1">
          <mxGeometry x="380" y="150" width="50" height="40" as="geometry" />
        </mxCell>
        <mxCell id="SJpITs7ze4VyYi8E-i2q-9" value="" style="edgeStyle=orthogonalEdgeStyle;rounded=0;orthogonalLoop=1;jettySize=auto;html=1;" edge="1" parent="1" source="SJpITs7ze4VyYi8E-i2q-5" target="SJpITs7ze4VyYi8E-i2q-7">
          <mxGeometry relative="1" as="geometry" />
        </mxCell>
        <mxCell id="SJpITs7ze4VyYi8E-i2q-5" value="控制器" style="rounded=0;whiteSpace=wrap;html=1;" vertex="1" parent="1">
          <mxGeometry x="160" y="150" width="50" height="40" as="geometry" />
        </mxCell>
        <mxCell id="SJpITs7ze4VyYi8E-i2q-10" value="" style="edgeStyle=orthogonalEdgeStyle;rounded=0;orthogonalLoop=1;jettySize=auto;html=1;" edge="1" parent="1" source="SJpITs7ze4VyYi8E-i2q-7" target="SJpITs7ze4VyYi8E-i2q-4">
          <mxGeometry relative="1" as="geometry" />
        </mxCell>
        <mxCell id="SJpITs7ze4VyYi8E-i2q-7" value="控制阀" style="rounded=0;whiteSpace=wrap;html=1;" vertex="1" parent="1">
          <mxGeometry x="270" y="150" width="50" height="40" as="geometry" />
        </mxCell>
        <mxCell id="SJpITs7ze4VyYi8E-i2q-13" value="" style="endArrow=classic;html=1;" edge="1" parent="1">
          <mxGeometry width="50" height="50" relative="1" as="geometry">
            <mxPoint x="660" y="170" as="sourcePoint" />
            <mxPoint x="730" y="170" as="targetPoint" />
          </mxGeometry>
        </mxCell>
        <mxCell id="SJpITs7ze4VyYi8E-i2q-17" value="" style="edgeStyle=orthogonalEdgeStyle;rounded=0;orthogonalLoop=1;jettySize=auto;html=1;" edge="1" parent="1" source="SJpITs7ze4VyYi8E-i2q-16" target="SJpITs7ze4VyYi8E-i2q-5">
          <mxGeometry relative="1" as="geometry" />
        </mxCell>
        <mxCell id="SJpITs7ze4VyYi8E-i2q-16" value="&amp;nbsp; &amp;nbsp; -" style="verticalLabelPosition=bottom;verticalAlign=top;html=1;shape=mxgraph.flowchart.or;" vertex="1" parent="1">
          <mxGeometry x="70" y="147.5" width="45" height="45" as="geometry" />
        </mxCell>
        <mxCell id="SJpITs7ze4VyYi8E-i2q-18" value="" style="endArrow=classic;html=1;" edge="1" parent="1">
          <mxGeometry width="50" height="50" relative="1" as="geometry">
            <mxPoint x="20" y="170" as="sourcePoint" />
            <mxPoint x="70" y="170" as="targetPoint" />
          </mxGeometry>
        </mxCell>
      </root>
    </mxGraphModel>
  </diagram>
</mxfile>
